<svg xmlns="http://www.w3.org/2000/svg" width="49" height="32" viewBox="0 0 49 32">
    <g fill="none" fill-rule="evenodd">
        <g>
            <g>
                <g>
                    <path fill="#000" d="M31.733 0.4L20.826 17.717 8.994 17.717 11.674 13.434 19.069 13.434 21.75 9.151 5.296 9.151 2.615 13.434 6.59 13.434 1.229 22 23.321 22 31.733 8.5 34.784 13.434 32.103 13.434 29.422 17.717 37.465 17.717 40.145 22 45.229 22 31.733 0.4z" transform="translate(-819 -2667) translate(150 2667) translate(669)"/>
                    <path fill="#000" d="M26.829 1.2L9.489 1.2 6.829 5.2 24.168 5.2 26.829 1.2z" transform="translate(-819 -2667) translate(150 2667) translate(669)"/>
                    <path fill="#000" stroke="#000" stroke-width=".5" d="M5.7 24.742v1.143h1.223v-.527c0-1.407-.565-1.758-2.07-1.758H2.404C.9 23.6.43 24.04.43 25.534v.703c0 1.495.47 1.846 1.976 1.846H5.7v2.374H1.746v-1.23H.43v.527c0 1.406.47 1.846 1.976 1.846h2.636c1.506 0 1.976-.44 1.976-1.846v-.967c0-1.406-.47-1.846-1.976-1.846H1.746v-2.198H5.7zm30.776 0h2.918V23.6H32.24v1.142h2.824V31.6h1.41v-6.858h0zm9.035 0v1.143h1.224v-.527c0-1.407-.565-1.758-1.977-1.758h-2.446c-1.6 0-1.977.44-1.977 1.934v.703c0 1.495.376 1.846 1.977 1.846h3.293v2.374h-4.329v-1.23H39.96v.527c0 1.406.47 1.846 1.976 1.846h2.918c1.6 0 1.976-.44 1.976-1.846v-.967c0-1.406-.377-1.846-1.976-1.846h-3.295v-2.198h3.953z" transform="translate(-819 -2667) translate(150 2667) translate(669)"/>
                    <path fill="#000" d="M7.629 31.6h1.543v-3.077h3.703c1.337 0 1.954-.44 1.954-1.582v-1.759c0-1.143-.617-1.582-1.954-1.582H7.629v8zm4.629-6.946c.72 0 1.028.176 1.028.792v1.143c0 .703-.308.879-1.028.879H9.172v-2.814h3.086z" transform="translate(-819 -2667) translate(150 2667) translate(669)"/>
                    <path stroke="#000" stroke-width=".5" d="M7.629 31.6h1.543v-3.077h3.703c1.337 0 1.954-.44 1.954-1.582v-1.759c0-1.143-.617-1.582-1.954-1.582H7.629v8zm4.629-6.946c.72 0 1.028.176 1.028.792v1.143c0 .703-.308.879-1.028.879H9.172v-2.814h3.086z" transform="translate(-819 -2667) translate(150 2667) translate(669)"/>
                    <path fill="#000" d="M14.829 25.534v4.22c0 1.406.456 1.846 1.914 1.846h3.372c1.458 0 1.914-.44 1.914-1.846v-4.22c0-1.495-.456-1.934-1.914-1.934h-3.372c-1.459 0-1.914.44-1.914 1.934zm1.367 4.923v-5.802h4.466v5.802h-4.466z" transform="translate(-819 -2667) translate(150 2667) translate(669)"/>
                    <path stroke="#000" stroke-width=".5" d="M14.829 25.534v4.22c0 1.406.456 1.846 1.914 1.846h3.372c1.458 0 1.914-.44 1.914-1.846v-4.22c0-1.495-.456-1.934-1.914-1.934h-3.372c-1.459 0-1.914.44-1.914 1.934zm1.367 4.923v-5.802h4.466v5.802h-4.466z" transform="translate(-819 -2667) translate(150 2667) translate(669)"/>
                    <path fill="#000" d="M24.429 31.6h1.44v-3.077h.36l3.33 3.077h2.07l-3.78-3.077h1.26c1.17 0 1.71-.44 1.71-1.582v-1.759c0-1.143-.54-1.582-1.71-1.582h-4.68v8zm4.14-6.946c.54 0 .81.176.81.792v1.23c0 .616-.27.792-.81.792h-2.7v-2.814h2.7z" transform="translate(-819 -2667) translate(150 2667) translate(669)"/>
                    <path stroke="#000" stroke-width=".5" d="M24.429 31.6h1.44v-3.077h.36l3.33 3.077h2.07l-3.78-3.077h1.26c1.17 0 1.71-.44 1.71-1.582v-1.759c0-1.143-.54-1.582-1.71-1.582h-4.68v8zm4.14-6.946c.54 0 .81.176.81.792v1.23c0 .616-.27.792-.81.792h-2.7v-2.814h2.7z" transform="translate(-819 -2667) translate(150 2667) translate(669)"/>
                    <path fill="#000" d="M46.594 25.12h-.283v-1.2h-.282v-.32h.847v.32h-.282v1.2zm1.411-.88l-.282.96h-.14l-.283-.96-.142.88h-.282l.212-1.52h.212l.352.96.353-.96h.212l.212 1.52h-.282l-.142-.88z" transform="translate(-819 -2667) translate(150 2667) translate(669)"/>
                </g>
            </g>
        </g>
    </g>
</svg>
