<svg xmlns="http://www.w3.org/2000/svg" width="90" height="19" viewBox="0 0 90 19">
    <g fill="none" fill-rule="evenodd">
        <g fill-rule="nonzero">
            <g>
                <g>
                    <g>
                        <path fill="#000" d="M27.79 15.713C25.717 17.5 23.443 18.4 20.935 18.4s-4.465-.901-5.936-2.687c-1.438-1.802-1.957-3.98-1.522-6.513.435-2.534 1.706-4.71 3.78-6.48C19.346.919 21.636 0 24.144 0s4.465.901 5.92 2.72c1.471 1.786 1.99 3.946 1.555 6.48-.469 2.55-1.723 4.71-3.83 6.513zm-2.106-9.217c-.62-.748-1.438-1.14-2.475-1.14-1.07 0-2.023.375-2.893 1.14-.87.748-1.404 1.667-1.588 2.721-.184 1.088.033 1.99.635 2.738.619.748 1.438 1.14 2.508 1.14 1.037 0 1.99-.375 2.876-1.14.903-.748 1.422-1.667 1.622-2.738.167-1.071-.05-1.973-.685-2.72zM59.728.63h-1.772l.016-.017-1.638.017h-3.21c-.151 0-.285.017-.419.034-1.856.085-3.578.8-5.167 2.16-1.655 1.428-2.675 3.163-3.043 5.238l-.401 2.346c-.351 2.058.067 3.793 1.22 5.238 1.12 1.36 2.592 2.075 4.448 2.16.117.017.251.034.385.034h1.806l3.026.017-.033-.017h1.789l.903-5.238h-4.749v-.017c-.886-.017-1.572-.323-2.09-.97-.518-.645-.702-1.41-.552-2.346.15-.901.602-1.667 1.354-2.313.736-.629 1.539-.952 2.425-.969v-.017h4.749l.953-5.34z" transform="translate(-1200 -2674) translate(150 2667) translate(669) translate(381 7)"/>
                        <path fill="#05253D" d="M46.735.477h-1.79l.017-.017-1.655.017h-3.243c-.152 0-.287.018-.422.035-1.875.085-3.614.801-5.219 2.165C32.751 4.11 31.721 5.85 31.35 7.93l-.406 2.353c-.354 2.063.068 3.803 1.233 5.252 1.132 1.364 2.618 2.08 4.492 2.166.119.017.254.034.389.034h1.824l3.057.017-.034-.017h1.807l.912-5.252h-4.796v-.017c-.895-.017-1.588-.324-2.111-.972-.524-.648-.71-1.416-.558-2.354.152-.903.608-1.67 1.368-2.319.743-.63 1.554-.955 2.45-.972v-.017h4.795l.963-5.355zm17.277 13.046h7.228l-.726 4.195H57.932L60.955.478h12.582l-.946 5.371h-7.228l-.304 1.722h7.228l-.743 4.23h-7.228l-.304 1.722zm20.131 4.86c-.169 0-.32-.017-.49-.051-.354 0-.692-.051-1.03-.103-.32-.05-.642-.153-.962-.255-.862-.205-1.672-.563-2.432-1.006-.76-.478-1.419-1.04-2.027-1.723h-.05l-.44 2.473H71.41L74.432.392l8.41.051c2.027 0 3.615.734 4.814 2.166 1.182 1.433 1.588 3.172 1.233 5.252-.169 1.006-.54 1.944-1.081 2.848-.524.887-1.182 1.637-1.959 2.32 1.148 0 2.837-.478 3.479-.751L84.599 18.4c-.118 0-.287-.017-.456-.017zM81.931 5.815h-3.125l-.709 4.093h3.124c.558 0 1.081-.205 1.537-.597.473-.41.76-.887.845-1.433.101-.58-.017-1.057-.338-1.466-.32-.392-.777-.597-1.334-.597zM14.664 0h-3.226c-2.82 0-5.894 2.302-6.89 5.133-.963 2.78.422 5.03 3.107 5.133.084.051.135.102.186.136.27.273.169.802-.085 1.33-.405.853-1.266 1.672-2.212 1.672-.085 0-.186 0-.27-.018L4.142 13.2l-1.114-.205-2.5 4.826c.743.17 1.52.273 2.28.392.253.069.422.086.49.086.202.017.405.034.608.034 1.638 0 3.26-.58 4.914-1.74 1.858-1.296 3.125-2.899 3.8-4.826.507-1.466.54-2.78.05-3.973-.455-1.177-1.316-1.944-2.583-2.336l.186-.529h4.78l1.722-4.91s-.44 0-2.111-.018z" transform="translate(-1200 -2674) translate(150 2667) translate(669) translate(381 7)"/>
                    </g>
                </g>
            </g>
        </g>
    </g>
</svg>
