<svg xmlns="http://www.w3.org/2000/svg" width="119" height="20" viewBox="0 0 119 20">
    <g fill="none" fill-rule="evenodd">
        <g fill="#000" fill-rule="nonzero">
            <g>
                <g>
                    <g>
                        <path d="M116.922 2.073c.238 0 .65.082.65-.452 0-.421-.257-.475-.472-.475h-.529v.927h.351z" transform="translate(-918 -2673) translate(150 2667) translate(669) translate(99 6)"/>
                        <path d="M117.063.112c.848 0 1.508.658 1.508 1.48 0 .842-.66 1.519-1.508 1.52-.828 0-1.492-.678-1.492-1.52 0-.393.156-.77.436-1.048s.66-.434 1.056-.432zm.207.533h-.829v1.913h.228v-.886h.414l.578.886h.27l-.58-.885c.333 0 .6-.122.6-.514 0-.183-.06-.348-.207-.411-.164-.08-.31-.103-.474-.103zM30.571 1.112v17.89h-2.988V17.79c-1.182.864-2.615 1.328-4.085 1.321-3.827 0-6.927-3.067-6.927-6.852 0-3.766 3.1-6.831 6.927-6.831 1.521 0 2.932.495 4.064 1.32V1.113h3.01zm-7.073 7.127c-1.079-.002-2.114.421-2.876 1.176-.763.754-1.192 1.777-1.192 2.844-.004 1.068.424 2.094 1.187 2.85.764.755 1.8 1.177 2.88 1.174 1.08.003 2.116-.42 2.88-1.176.762-.755 1.189-1.78 1.184-2.848.001-1.067-.427-2.09-1.19-2.843-.761-.754-1.795-1.178-2.873-1.177zM7.497 5.112c1.528 0 2.942.506 4.096 1.351V5.13h2.978V19h-2.978v-1.24c-1.185.884-2.622 1.358-4.096 1.351-3.854 0-6.926-3.138-6.926-7.01 0-3.853 3.072-6.99 6.926-6.99zm0 2.876c-2.252 0-4.058 1.84-4.058 4.112 0 2.296 1.806 4.117 4.058 4.117 1.083.004 2.122-.429 2.888-1.202.765-.773 1.194-1.822 1.19-2.915 0-2.273-1.826-4.112-4.078-4.112zM59.506 5.112c1.527 0 2.94.506 4.055 1.352V5.13h3.01V19h-2.974l-.036-1.24c-1.116.863-2.528 1.352-4.055 1.352-3.83 0-6.935-3.139-6.935-7.012 0-3.852 3.105-6.988 6.935-6.988zm0 2.876c-2.25 0-4.052 1.84-4.052 4.112 0 2.296 1.802 4.117 4.052 4.117 1.078 0 2.112-.434 2.873-1.207.761-.773 1.187-1.82 1.182-2.91 0-2.273-1.824-4.112-4.055-4.112zM51.571 1.112v17.89h-2.975V17.79c-1.133.844-2.564 1.322-4.09 1.322-3.812 0-6.935-3.068-6.935-6.853 0-3.766 3.123-6.831 6.934-6.831 1.527 0 2.94.495 4.091 1.321V1.112h2.975zm-7.066 7.127c-1.08-.004-2.118.418-2.883 1.173-.764.754-1.192 1.78-1.19 2.847-.006 1.069.42 2.096 1.186 2.852.765.756 1.805 1.178 2.887 1.172 1.082.003 2.12-.42 2.884-1.175.765-.756 1.193-1.781 1.19-2.85 0-1.066-.43-2.089-1.194-2.843s-1.8-1.177-2.88-1.176zM77.107 9.56c-.173-1.128-1.111-1.937-2.602-1.937-.785 0-2.488.256-2.488 1.234 0 1.458 2.584 1.586 3.214 1.624 4.136.37 5.34 2.122 5.34 4.187 0 1.53-.803 2.673-1.95 3.485-.976.682-2.986.959-4.212.959-2.718 0-5.473-1.437-5.838-4.686h3.044c.17 1.532 1.837 2.104 2.775 2.104 1.702 0 2.908-.7 2.908-1.512 0-1.29-1.243-1.568-3.044-1.752-1.011-.11-2.948-.443-3.75-1.089-.898-.682-1.664-1.457-1.664-2.784 0-2.38 1.932-4.26 5.742-4.281 3.158-.018 5.55 1.79 5.624 4.426l-3.099.022zM35.571 4.112L35.571 1.112 32.571 1.112 32.571 4.112zM35.571 19.112L35.571 5.112 32.571 5.112 32.571 19.112 35.571 19.112zM103.552 10.112c.176-3.16-.843-6.626-3.583-10-2.659 3.158-3.596 6.75-3.363 10h6.946zM96.877 13.112c-.122-.331-.224-.665-.306-1h7c-.08.335-.182.669-.305 1h-6.389zM98.571 17.112c.435.711.937 1.38 1.499 2 .553-.603 1.046-1.284 1.501-2h-3zM114.07 10.112c.741-1.483 1.262-3.143 1.501-5-4.32.357-7.716 2.373-10 5h8.499zM113.571 12.112c-.309.353-.638.67-.984 1l-9.016-.025c.29-.317.58-.673.909-.975h9.091zM110.017 16.087c.555-.598 1.075-1.25 1.554-1.951l-22-.024c.496.722 1.035 1.391 1.612 2l18.834-.025zM102.79 17.112c-.126.658-.199 1.327-.219 2 2.018-.099 4.109-.774 6-2h-5.782z" transform="translate(-918 -2673) translate(150 2667) translate(669) translate(99 6)"/>
                        <path d="M87.571 12.112c.327.353.656.67 1.024 1h8.976c-.252-.342-.56-.671-.89-1h-9.11zM92.571 17.112c1.897 1.226 3.977 1.901 6 2-.022-.671-.09-1.34-.2-2h-5.8zM95.571 10.112c-2.27-2.627-5.659-4.643-10-5 .221 1.729.717 3.415 1.472 5h8.528z" transform="translate(-918 -2673) translate(150 2667) translate(669) translate(99 6)"/>
                    </g>
                </g>
            </g>
        </g>
    </g>
</svg>
