<svg xmlns="http://www.w3.org/2000/svg" width="63" height="32" viewBox="0 0 63 32">
    <g fill="none" fill-rule="evenodd">
        <g fill="#000" fill-rule="nonzero">
            <g>
                <g>
                    <g>
                        <path d="M11.31 19.158c-.481 0-.857.334-.857.822 0 .488.378.82.856.82.479 0 .857-.334.857-.82 0-.488-.376-.822-.857-.822zm0 1.407c-.343 0-.597-.249-.597-.585 0-.336.252-.587.596-.587.34 0 .597.255.597.587 0 .33-.259.585-.597.585zm8.336-4.28h-4.17l.473-7.205-2.708 7.205H9.368L15.513 0h4.121l-.475 7.303L21.919 0h3.873l-6.146 16.285zm.503 0L26.295 0h3.873l-6.145 16.285h-3.874z" transform="translate(-1087 -2667) translate(150 2667) translate(669) translate(268)"/>
                        <path d="M8.459 10.594C2.942 17.14-2.262 25.85 2.334 29.86c4.455 3.887 10.022 1.586 13.818.052C19.95 28.377 61.908 9.967 61.908 9.967c.405-.205.33-.46-.177-.333-.204.052-45.68 12.504-45.68 12.504-5.77 1.637-12.35-1.93-7.592-11.544z" transform="translate(-1087 -2667) translate(150 2667) translate(669) translate(268)"/>
                        <path d="M11.482 20.41c.125-.006.222-.069.222-.237 0-.216-.145-.27-.388-.27h-.348v.897h.232v-.382h.04l.211.382h.268l-.237-.39zm-.149-.146h-.132v-.208h.111c.07 0 .148.008.148.095 0 .093-.046.113-.127.113zM51.68 0c-.498 0-.888.34-.888.835 0 .495.392.833.888.833.495 0 .888-.34.888-.833 0-.495-.39-.835-.888-.835zm0 1.43c-.355 0-.619-.253-.619-.595 0-.341.262-.596.619-.596.353 0 .618.259.618.596 0 .336-.267.595-.618.595z" transform="translate(-1087 -2667) translate(150 2667) translate(669) translate(268)"/>
                        <path d="M52.328.897c.126-.007.225-.073.225-.252 0-.23-.147-.288-.393-.288h-.353v.955h.235V.905h.04l.214.407h.272l-.24-.415zm-.152-.155h-.134V.52h.114c.069 0 .149.009.149.102 0 .098-.046.12-.129.12zm-2.68 2.192L50.587 0H38.18l-4.26 5.28L35.887 0h-4.119l-6.4 17.6h4.066l2.733-7.36.187 7.36 12.477-.028 1.188-3.385h-4.744l1.559-4.267h3.91l1.203-3.28h-3.91l1.34-3.706h4.118zM36.387 16.427l-.26-9.174L42.275.348l-5.888 16.079z" transform="translate(-1087 -2667) translate(150 2667) translate(669) translate(268)"/>
                    </g>
                </g>
            </g>
        </g>
    </g>
</svg>
